<mxfile host="app.diagrams.net" modified="2024-05-21T10:02:43.355Z" agent="Mozilla/5.0 (Windows NT 10.0; Win64; x64) AppleWebKit/537.36 (KHTML, like Gecko) Chrome/124.0.0.0 Safari/537.36 Edg/124.0.0.0" version="24.2.5" etag="I5_GZ0nx1_dKQ_-f7g-w" type="github">
  <diagram name="Page-1" id="sDIPOlnHoHYbp1joSBPW">
    <mxGraphModel>
      <root>
        <mxCell id="0" />
        <mxCell id="1" parent="0" />
      </root>
    </mxGraphModel>
  </diagram>
</mxfile>
